{"title":"Merlin Season 2 DVDRip XviD - DiGrX","uid":9332984,"size":4749050245,"categoryP":"video","categoryS":"tv_shows","magnet":"?xt=urn:btih:89ec227107d5f6b7d55ffe3afd91d094421befe7&amp;dn=Merlin+Season+2+DVDRip+XviD+-+DiGrX&amp;tr=udp%3A%2F%2Ftracker.openbittorrent.com%3A80&amp;tr=udp%3A%2F%2Fopen.demonii.com%3A1337&amp;tr=udp%3A%2F%2Ftracker.coppersurfer.tk%3A6969&amp;tr=udp%3A%2F%2Fexodus.desync.com%3A6969","seeders":1,"leechers":0,"uploader":"dimigeor","files":14,"time":1386800935,"description":"A DiGrX release\n\n\n\nMerlin Season 2 DVDRip XviD - DiGrX\n\nAll episodes in XviD from DVDRip\n\nCodec ID, Format: XVID, MPEG-4\nAspect ratio, Dimension: 16:9, 624x368 / 624x352\nAudio: MP3, 2 Channels\n\n\n-----------------------------------------------------------------------------------\n\n\nEpisode 1 example:\n\nGeneral\nComplete name                            : Merlin 2x01 - The Curse of Cornelius Sigan DVDRip.avi\nFormat                                   : AVI\nFormat/Info                              : Audio Video Interleave\nFile size                                : 348 MiB\nDuration                                 : 43mn 55s\nOverall bit rate mode                    : Variable\nOverall bit rate                         : 1 109 Kbps\nWriting application                      : VirtualDubMod 1.5.10.2 (build 2540/release)\nWriting library                          : VirtualDubMod build 2540/release\n\nVideo\nID                                       : 0\nFormat                                   : MPEG-4 Visual\nFormat profile                           : Advanced Simple@L5\nFormat settings, BVOP                    : 2\nFormat settings, QPel                    : No\nFormat settings, GMC                     : No warppoints\nFormat settings, Matrix                  : Default (H.263)\nMuxing mode                              : Packed bitstream\nCodec ID                                 : XVID\nCodec ID/Hint                            : XviD\nDuration                                 : 43mn 55s\nBit rate                                 : 975 Kbps\nWidth                                    : 624 pixels\nHeight                                   : 368 pixels\nDisplay aspect ratio                     : 1.696\nFrame rate                               : 25.000 fps\nColor space                              : YUV\nChroma subsampling                       : 4:2:0\nBit depth                                : 8 bits\nScan type                                : Progressive\nCompression mode                         : Lossy\nBits/(Pixel*Frame)                       : 0.170\nStream size                              : 306 MiB (88%)\nWriting library                          : XviD 1.2.1 (UTC 2008-12-04)\n\nAudio\nID                                       : 1\nFormat                                   : MPEG Audio\nFormat version                           : Version 1\nFormat profile                           : Layer 3\nMode                                     : Joint stereo\nMode extension                           : MS Stereo\nCodec ID                                 : 55\nCodec ID/Hint                            : MP3\nDuration                                 : 43mn 55s\nBit rate mode                            : Variable\nBit rate                                 : 121 Kbps\nNominal bit rate                         : 128 Kbps\nChannel(s)                               : 2 channels\nSampling rate                            : 48.0 KHz\nCompression mode                         : Lossy\nStream size                              : 38.1 MiB (11%)\nAlignment                                : Aligned on interleaves\nInterleave, duration                     : 24 ms (0.60 video frame)\nInterleave, preload duration             : 522 ms\nWriting library                          : LAME3.98r\nEncoding settings                        : -m j -V 4 -q 2 -lowpass 17 --abr 128\n\n","torrent":{"xt":"urn:btih:89ec227107d5f6b7d55ffe3afd91d094421befe7","amp;dn":"Merlin+Season+2+DVDRip+XviD+-+DiGrX","amp;tr":["udp%3A%2F%2Ftracker.openbittorrent.com%3A80","udp%3A%2F%2Fopen.demonii.com%3A1337","udp%3A%2F%2Ftracker.coppersurfer.tk%3A6969","udp%3A%2F%2Fexodus.desync.com%3A6969"],"infoHash":"89ec227107d5f6b7d55ffe3afd91d094421befe7","infoHashBuffer":{"type":"Buffer","data":[137,236,34,113,7,213,246,183,213,95,254,58,253,145,208,148,66,27,239,231]},"announce":[],"urlList":[]}}